<svg xmlns="http://www.w3.org/2000/svg" viewBox="0 0 512 512" width="20" height="20" fill="currentcolor">
	<path d="M471.75 309.8l-44.05-39.25c-12.75-11.35-12.75-29.95 0-41.3l44.05-39.25c12.75-11.35 9.35-21.9-7.55-23.6l-58.45-5.55c-16.9-1.6-26.05-16.15-20.2-32.3l31-86.35c5.8-16.2-1.3-22.05-15.8-13.1l-68.95 42.6c-14.5 9.05-33.25 4.1-41.6-10.85l-24.95-44.55c-8.4-15-22.25-15.05-30.8-.2l-23.2 40.3c-8.6 14.95-28.3 21.25-43.7 14.2l-40.85-18.75c-15.5-7.15-27.4 1.05-26.45 18.25l2.2 41.2c.95 17.2-11.75 34.9-28.15 39.35l-39.45 10.55C18.5 165.7 15.5 178.6 28.25 189.95l44.05 39.25c12.75 11.35 12.75 29.95 0 41.3l-44.05 39.25c-12.75 11.35-9.4 22.4 7.5 24.4l53.45 6.5c16.85 2.05 26.25 17.1 20.9 33.45l-27.4 83.15c-5.4 16.35 2.3 22.7 17.05 14.15l62.85-36.4c14.75-8.5 34.6-3.85 44.1 10.4l26.1 39.25c9.5 14.25 23.75 13.5 31.65-1.75l22.95-44.25c7.9-15.25 26.85-21.5 42.05-13.85l44.25 22.15c15.25 7.6 26.95-.25 26.05-17.4l-2.2-41.25c-.9-17.2 11.75-34.85 28.2-39.25l39.4-10.6C481.5 334.1 484.55 321.2 471.75 309.8L471.75 309.8zM275.5 352.1H224.5V301.05H275.5V352.1zM275.5 275.55H224.5V147.95H275.5V275.55z"/>
</svg>
