<svg xmlns="http://www.w3.org/2000/svg" viewBox="0 0 512 512">
    <path fill="currentColor" d="M 400 0 h -288 c -26.51 0 -48 21.49 -48 48 v 416 c 0 26.51 21.49 48 48 48 h 288 c 26.51 0 48 -21.49 48 -48 v -416 c 0 -26.51 -21.49 -48 -48 -48 z m 8 464 c 0 4.411 -3.589 8 -8 8 h -288 c -4.411 0 -8 -3.589 -8 -8 v -416 c 0 -4.411 3.589 -8 8 -8 h 288 c 4.411 0 8 3.589 8 8 v 416 z m -222 -324 v -28 c 0 -6.627 -5.373 -12 -12 -12 h -28 c -6.627 0 -12 5.373 -12 12 v 28 c 0 6.627 5.373 12 12 12 h 28 c 6.627 0 12 -5.373 12 -12 z m 96 0 v -28 c 0 -6.627 -5.373 -12 -12 -12 h -28 c -6.627 0 -12 5.373 -12 12 v 28 c 0 6.627 5.373 12 12 12 h 28 c 6.627 0 12 -5.373 12 -12 z m 96 0 v -28 c 0 -6.627 -5.373 -12 -12 -12 h -28 c -6.627 0 -12 5.373 -12 12 v 28 c 0 6.627 5.373 12 12 12 h 28 c 6.627 0 12 -5.373 12 -12 z"></path>
</svg>
